<svg enable-background="new 0 0 512 512" height="512" viewBox="0 0 512 512" width="512" xmlns="http://www.w3.org/2000/svg"><path d="m448 160h-64v-4.5c0-68.5-55-123.5-123.5-123.5h-8c-68.5 0-124.5 55-124.5 123.5v4.5h-64l-32 320h448zm-288-4.5c0-50.7 41.8-91.5 92.5-91.5h7.5.5c50.7 0 91.5 40.8 91.5 91.5v4.5h-192zm-92.2 292.5 24.9-256h35.3v36.3c-9.6 5.5-16 15.9-16 27.7 0 17.7 14.3 32 32 32s32-14.3 32-32c0-11.8-6.4-22.2-16-27.7v-36.3h192v36.3c-9.6 5.5-16 15.9-16 27.7 0 17.7 14.3 32 32 32s32-14.3 32-32c0-11.8-6.4-22.2-16-27.7v-36.3h35.4l24.9 256z"/></svg>