<svg height="81" viewBox="0 0 81 81" width="81" xmlns="http://www.w3.org/2000/svg"><path d="m80.6 40.6c0 22.1-18 40-40 40-22.1 0-40-17.9-40-40s17.9-40.1 40-40.1c22 0 40 18 40 40.1zm-7.8 0c0-17.8-14.4-32.3-32.2-32.3s-32.3 14.5-32.3 32.3 14.5 32.3 32.3 32.3 32.2-14.5 32.2-32.3zm-21.9 6.4c0 4.4-2.7 8.1-6.5 9.6v7.2h-7.7v-7.2c-3.8-1.5-6.5-5.2-6.5-9.6h7.8c0 1.5 1.2 2.6 2.6 2.6s2.6-1.1 2.6-2.6c0-1.4-1.2-2.6-2.6-2.6-5.7 0-10.4-4.6-10.4-10.3 0-4.3 2.7-8 6.5-9.6v-7.2h7.7v7.2c3.8 1.6 6.5 5.3 6.5 9.6h-7.7c0-1.4-1.2-2.6-2.6-2.6s-2.6 1.2-2.6 2.6 1.2 2.6 2.6 2.6c5.7 0 10.3 4.6 10.3 10.3z" fill="#323534" fill-rule="evenodd"/></svg>