<svg height="75" viewBox="0 0 81 75" width="81" xmlns="http://www.w3.org/2000/svg"><path d="m80.6.1v56.9h-22.9l-17.1 17.1-17.1-17.1h-22.9v-56.9zm-7.8 49.2v-41.4h-64.5v41.4h18.4l13.8 13.9 13.9-13.9zm-36.1-28.5c0 2.9-2.3 5.2-5.2 5.2-2.8 0-5.1-2.3-5.1-5.2 0-2.8 2.3-5.2 5.1-5.2 2.9 0 5.2 2.4 5.2 5.2zm0 18.1c0 2.9-2.3 5.2-5.2 5.2-2.8 0-5.1-2.3-5.1-5.2 0-2.8 2.3-5.2 5.1-5.2 2.9 0 5.2 2.4 5.2 5.2zm18.1-9c0 7-2.3 13.7-6.7 19.2l-6.1-4.8c3.3-4.2 5-9.2 5-14.4 0-5.3-1.7-10.3-5-14.5l6.1-4.8c4.4 5.6 6.7 12.2 6.7 19.3z" fill="#323534" fill-rule="evenodd"/></svg>