<svg enable-background="new 0 0 500 500" viewBox="0 0 500 500" xmlns="http://www.w3.org/2000/svg"><path d="m459.576 389.073c8.822-15.453 14.656-32.836 17.81-50.67 18.592-105.14-18.278-229.683-123.79-274.045-36.367-15.291-78.119-17.592-115.817-5.797-42.824 13.4-70.358 46.777-104.79 73.326-24.285 18.725-55.007 27.867-77.341 49.19-23.575 22.509-38.694 54.871-38.758 87.656-.045 23.052 9.247 45.425 27.97 59.492 18.351 13.788 41.698 17.38 61.596 28.163 22.159 12.008 35.487 32.965 53.219 50.062 40.901 39.435 102.178 51.646 157.216 49.797 54.043-1.814 114.096-17.094 142.685-67.174z" fill="#92e3a9"/><path d="m459.576 389.073c8.822-15.453 14.656-32.836 17.81-50.67 18.592-105.14-18.278-229.683-123.79-274.045-36.367-15.291-78.119-17.592-115.817-5.797-42.824 13.4-70.358 46.777-104.79 73.326-24.285 18.725-55.007 27.867-77.341 49.19-23.575 22.509-38.694 54.871-38.758 87.656-.045 23.052 9.247 45.425 27.97 59.492 18.351 13.788 41.698 17.38 61.596 28.163 22.159 12.008 35.487 32.965 53.219 50.062 40.901 39.435 102.178 51.646 157.216 49.797 54.043-1.814 114.096-17.094 142.685-67.174z" fill="#fff" opacity=".7"/><path d="m388.221 376.032c2.721 1.188 9.374 1.038 9.379 1.038.069-.002-1.43-4.356-1.556-4.62-1.459-3.054-6.076-8.097-9.833-7.589-2.706.366-4.211 3.074-3.6 5.622.623 2.603 3.293 4.536 5.61 5.549z" fill="#92e3a9"/><path d="m390.517 395.305c2.822.411 8.76-1.311 9.232-1.45.938 3.324 2.169 6.659 3.602 9.965.816 1.891 1.698 3.77 2.606 5.643-.542-.793-1.032-1.499-1.111-1.59-2.215-2.56-8-6.204-11.488-4.722-2.514 1.067-3.25 4.077-1.988 6.373 1.288 2.345 4.375 3.505 6.876 3.869 2.539.37 7.63-.996 8.973-1.376.356.715.703 1.433 1.062 2.146 1.719 3.424 3.45 6.833 5.045 10.229.563 1.196 1.073 2.395 1.588 3.593-.482-.704-.893-1.293-.966-1.377-2.215-2.559-7.999-6.204-11.488-4.722-2.514 1.068-3.25 4.077-1.988 6.373 1.29 2.345 4.375 3.505 6.877 3.869 2.423.353 7.134-.866 8.731-1.309.49 1.242.984 2.486 1.403 3.712.267.844.584 1.637.804 2.499.237.849.472 1.69.704 2.522.389 1.62.8 3.288 1.139 4.878.244 1.104.457 2.16.674 3.224-.546-1.198-1.665-3.52-1.781-3.703-1.801-2.866-6.966-7.344-10.64-6.408-2.646.675-3.83 3.538-2.93 5.998.919 2.513 3.793 4.127 6.21 4.866 2.662.813 8.556.07 9.291-.028.353 1.761.68 3.477.962 5.102.632 3.585 1.109 6.798 1.471 9.517h2.485c-.433-2.814-.999-6.166-1.748-9.93-.352-1.789-.763-3.695-1.203-5.647.443-.176 2.957-1.193 5.184-2.438 1.94 2.101 6.911 4.56 7.555 4.872-.676 1.664-1.351 3.276-2.012 4.786-1.375 3.164-2.68 5.97-3.833 8.356h2.687c.991-2.2 2.08-4.706 3.216-7.482.694-1.687 1.402-3.503 2.112-5.374.713.149 6.547 1.334 9.267.72 2.465-.557 5.453-1.953 6.557-4.391 1.081-2.386.113-5.33-2.476-6.2-3.593-1.207-9.078 2.874-11.087 5.598-.119.16-1.21 2.048-1.879 3.249.286-.766.572-1.507.856-2.299.574-1.563 1.1-3.14 1.672-4.834.248-.828.498-1.664.751-2.509.268-.832.446-1.746.675-2.626.489-2.052.884-4.155 1.235-6.282 1.37.498 6.26 2.2 8.794 2.022 2.522-.177 5.685-1.104 7.146-3.346 1.43-2.195.92-5.252-1.507-6.504-3.369-1.737-9.409 1.466-11.808 3.854-.15.148-1.678 2.055-2.498 3.119.201-1.281.408-2.557.569-3.86.467-3.758.822-7.577 1.193-11.385.113-1.167.24-2.328.362-3.49.486.183 6.255 2.331 9.093 2.131 2.522-.176 5.686-1.103 7.146-3.346 1.43-2.195.92-5.252-1.508-6.503-3.369-1.738-9.408 1.465-11.807 3.853-.181.18-2.377 2.927-2.901 3.653.271-2.561.564-5.11.956-7.611.535-3.452 1.251-6.809 2.185-10.011.226.086 6.237 2.354 9.143 2.151 2.522-.177 5.686-1.104 7.146-3.346 1.43-2.195.92-5.251-1.508-6.503-3.369-1.738-9.408 1.466-11.808 3.853-.188.188-2.549 3.144-2.939 3.711.056-.19.093-.394.151-.583 1.04-3.405 2.476-6.573 3.966-9.473.862-1.687 1.781-3.251 2.708-4.753 1.076.538 6.022 2.939 8.658 3.044 2.526.101 5.773-.473 7.47-2.541 1.662-2.025 1.491-5.119-.784-6.63-3.158-2.097-9.513.423-12.16 2.533-.144.115-1.478 1.443-2.436 2.424.429-.672.859-1.372 1.283-2.007 1.586-2.388 3.185-4.477 4.616-6.316.822-1.039 1.586-1.962 2.31-2.819 1.331-.023 6.695-.186 9.04-1.287 2.288-1.075 4.905-3.079 5.459-5.698.541-2.564-1.036-5.231-3.751-5.523-3.769-.406-8.248 4.759-9.625 7.851-.119.268-1.5 4.661-1.43 4.66 0 0 .065-.001.081-.001-.714.81-1.469 1.686-2.275 2.661-1.475 1.811-3.123 3.871-4.767 6.234-1.649 2.357-3.374 4.964-4.944 7.874-1.577 2.915-3.086 6.062-4.222 9.505-.013.039-.021.081-.034.12.02-1.11-.029-4.217-.06-4.455-.435-3.357-3.248-9.588-6.977-10.277-2.685-.496-4.96 1.608-5.174 4.219-.218 2.667 1.715 5.336 3.601 7.021 2.126 1.899 8.029 3.739 8.499 3.884-1.052 3.289-1.864 6.75-2.494 10.297-.362 2.028-.663 4.082-.939 6.145-.014-.961-.033-1.82-.049-1.939-.435-3.357-3.249-9.587-6.977-10.277-2.686-.497-4.96 1.608-5.173 4.219-.219 2.667 1.715 5.336 3.6 7.021 1.914 1.709 6.914 3.379 8.243 3.802-.098.793-.204 1.583-.299 2.376-.455 3.804-.891 7.602-1.435 11.315-.19 1.309-.426 2.59-.658 3.872-.014-.853-.032-1.571-.046-1.68-.435-3.357-3.248-9.588-6.976-10.277-2.686-.496-4.961 1.607-5.175 4.219-.219 2.666 1.716 5.336 3.602 7.02 1.825 1.631 6.428 3.214 8.005 3.725-.276 1.307-.551 2.616-.878 3.87-.243.851-.417 1.687-.708 2.529-.271.838-.539 1.669-.804 2.492-.57 1.565-1.147 3.184-1.741 4.696-.405 1.056-.811 2.054-1.216 3.06.205-1.3.553-3.854.558-4.07.052-2.248-.746-5.904-2.336-8.474.01-.332-.009-.663-.062-.992-.416-2.587-2.846-4.509-5.486-3.806-3.663.975-5.986 7.405-6.159 10.785-.01.199.12 2.375.225 3.747-.185-.797-.354-1.573-.554-2.39-.384-1.62-.815-3.225-1.272-4.955-.25-.827-.503-1.662-.759-2.507-.235-.842-.591-1.701-.885-2.562-.725-1.981-1.555-3.953-2.436-5.921 1.419-.34 6.436-1.619 8.451-3.165 2.006-1.539 4.133-4.057 4.114-6.732-.019-2.621-2.129-4.888-4.845-4.593-3.769.409-7.039 6.413-7.724 9.728-.042.207-.266 2.641-.363 3.98-.539-1.179-1.07-2.358-1.654-3.534-1.684-3.392-3.494-6.773-5.286-10.154-.549-1.035-1.084-2.073-1.624-3.111.506-.116 6.503-1.507 8.76-3.239 2.005-1.539 4.133-4.057 4.114-6.733-.019-2.619-2.13-4.888-4.845-4.592-3.769.409-7.039 6.412-7.723 9.728-.051.25-.368 3.752-.405 4.647-1.187-2.284-2.348-4.573-3.402-6.875-1.458-3.174-2.713-6.369-3.7-9.555.236-.054 6.501-1.478 8.813-3.251 2.006-1.539 4.133-4.057 4.114-6.733-.018-2.62-2.129-4.887-4.845-4.592-3.768.409-7.039 6.412-7.723 9.728-.054.261-.392 4.029-.404 4.716-.058-.189-.14-.379-.196-.569-1.01-3.415-1.56-6.849-1.918-10.09-.211-1.882-.308-3.693-.362-5.457 1.194-.146 6.644-.871 8.9-2.237 2.163-1.31 4.554-3.579 4.829-6.24.269-2.606-1.581-5.092-4.311-5.097-3.791-.007-7.701 5.601-8.745 8.821-.057.175-.437 2.019-.695 3.366-.012-.797-.04-1.619-.037-2.382.006-2.866.187-5.491.366-7.814.113-1.321.241-2.512.373-3.625 1.097-.755 5.481-3.849 6.829-6.061 1.316-2.159 2.392-5.274 1.41-7.763-.962-2.437-3.749-3.791-6.175-2.538-3.368 1.741-4.253 8.52-3.697 11.859.049.288 1.321 4.714 1.378 4.676 0 0 .054-.037.066-.046-.148 1.069-.294 2.217-.429 3.474-.231 2.324-.47 4.952-.537 7.829-.075 2.875-.075 6.002.221 9.295.293 3.301.77 6.759 1.722 10.257.011.039.027.079.038.119-.596-.937-2.352-3.5-2.509-3.682-2.215-2.56-7.999-6.204-11.488-4.723-2.514 1.068-3.25 4.077-1.988 6.374 1.294 2.351 4.379 3.51 6.88 3.875z" fill="#92e3a9"/><path d="m455.521 377.496c.059.037 1.21-4.422 1.251-4.712.466-3.352-.602-10.105-4.016-11.754-2.459-1.188-5.208.241-6.103 2.704-.915 2.514.245 5.6 1.619 7.722 1.612 2.491 7.245 6.037 7.249 6.04z" fill="#92e3a9"/><path d="m28.433 376.032c2.721 1.188 9.374 1.038 9.379 1.038.069-.002-1.43-4.356-1.556-4.62-1.46-3.054-6.077-8.097-9.833-7.589-2.706.366-4.211 3.074-3.6 5.622.624 2.603 3.293 4.536 5.61 5.549z" fill="#92e3a9"/><path d="m30.73 395.305c2.822.411 8.76-1.311 9.232-1.45.938 3.324 2.169 6.659 3.602 9.965.816 1.891 1.698 3.77 2.606 5.643-.542-.793-1.032-1.499-1.111-1.59-2.215-2.56-8-6.204-11.488-4.722-2.514 1.067-3.25 4.077-1.988 6.373 1.288 2.345 4.375 3.505 6.876 3.869 2.539.37 7.63-.996 8.973-1.376.356.715.703 1.433 1.062 2.146 1.719 3.424 3.45 6.833 5.045 10.229.563 1.196 1.073 2.395 1.588 3.593-.482-.704-.893-1.293-.966-1.377-2.215-2.559-7.999-6.204-11.488-4.722-2.514 1.068-3.25 4.077-1.988 6.373 1.29 2.345 4.375 3.505 6.877 3.869 2.423.353 7.134-.866 8.731-1.309.49 1.242.984 2.486 1.403 3.712.267.844.584 1.637.804 2.499.237.849.472 1.69.704 2.522.389 1.62.8 3.288 1.139 4.878.244 1.104.457 2.16.674 3.224-.546-1.198-1.665-3.52-1.781-3.703-1.801-2.866-6.966-7.344-10.64-6.408-2.646.675-3.83 3.538-2.93 5.998.919 2.513 3.793 4.127 6.21 4.866 2.662.813 8.556.07 9.291-.028.353 1.761.68 3.477.962 5.102.632 3.585 1.109 6.798 1.471 9.517h2.485c-.433-2.814-1-6.166-1.748-9.93-.351-1.789-.763-3.695-1.204-5.647.443-.176 2.957-1.193 5.184-2.438 1.94 2.101 6.911 4.56 7.555 4.872-.676 1.664-1.351 3.276-2.011 4.786-1.375 3.164-2.68 5.97-3.833 8.356h2.687c.991-2.2 2.08-4.706 3.216-7.482.694-1.687 1.403-3.503 2.112-5.374.713.149 6.548 1.334 9.267.72 2.465-.557 5.453-1.953 6.557-4.391 1.081-2.386.113-5.33-2.476-6.2-3.593-1.207-9.078 2.874-11.087 5.598-.119.16-1.211 2.048-1.879 3.249.286-.766.572-1.507.856-2.299.574-1.563 1.1-3.14 1.672-4.834.248-.828.498-1.664.751-2.509.268-.832.446-1.746.675-2.626.489-2.052.884-4.155 1.235-6.282 1.37.498 6.26 2.2 8.794 2.022 2.522-.177 5.685-1.104 7.145-3.346 1.43-2.195.92-5.252-1.507-6.504-3.369-1.737-9.409 1.466-11.808 3.854-.15.148-1.678 2.055-2.498 3.119.201-1.281.408-2.557.57-3.86.467-3.758.822-7.577 1.193-11.385.113-1.167.24-2.328.362-3.49.486.183 6.255 2.331 9.093 2.131 2.522-.176 5.686-1.103 7.145-3.346 1.43-2.195.92-5.252-1.507-6.503-3.369-1.738-9.408 1.465-11.808 3.853-.181.18-2.377 2.927-2.901 3.653.271-2.561.564-5.11.955-7.611.535-3.452 1.251-6.809 2.185-10.011.226.086 6.237 2.354 9.143 2.151 2.522-.177 5.686-1.104 7.146-3.346 1.43-2.195.92-5.251-1.508-6.503-3.369-1.738-9.408 1.466-11.808 3.853-.188.188-2.549 3.144-2.939 3.711.056-.19.093-.394.151-.583 1.04-3.405 2.476-6.573 3.966-9.473.862-1.687 1.781-3.251 2.708-4.753 1.076.538 6.022 2.939 8.658 3.044 2.526.101 5.773-.473 7.47-2.541 1.662-2.025 1.491-5.119-.784-6.63-3.158-2.097-9.513.423-12.16 2.533-.144.115-1.478 1.443-2.436 2.424.429-.672.859-1.372 1.283-2.007 1.586-2.388 3.185-4.477 4.616-6.316.822-1.039 1.586-1.962 2.31-2.819 1.331-.023 6.695-.186 9.04-1.287 2.288-1.075 4.905-3.079 5.459-5.698.541-2.564-1.036-5.231-3.751-5.523-3.769-.406-8.248 4.759-9.625 7.851-.119.268-1.5 4.661-1.43 4.66 0 0 .065-.001.081-.001-.714.81-1.469 1.686-2.275 2.661-1.475 1.811-3.123 3.871-4.767 6.234-1.649 2.357-3.374 4.964-4.944 7.874-1.577 2.915-3.086 6.062-4.222 9.505-.013.039-.021.081-.034.12.02-1.11-.029-4.217-.06-4.455-.435-3.357-3.249-9.588-6.977-10.277-2.685-.496-4.96 1.608-5.174 4.219-.218 2.667 1.715 5.336 3.602 7.021 2.126 1.899 8.029 3.739 8.499 3.884-1.052 3.289-1.864 6.75-2.494 10.297-.362 2.028-.663 4.082-.939 6.145-.014-.961-.033-1.82-.05-1.939-.435-3.357-3.248-9.587-6.976-10.277-2.686-.497-4.96 1.608-5.174 4.219-.219 2.667 1.715 5.336 3.6 7.021 1.914 1.709 6.914 3.379 8.243 3.802-.097.793-.204 1.583-.298 2.376-.455 3.804-.892 7.602-1.435 11.315-.19 1.309-.426 2.59-.658 3.872-.013-.853-.032-1.571-.046-1.68-.435-3.357-3.248-9.588-6.976-10.277-2.686-.496-4.96 1.607-5.175 4.219-.219 2.666 1.716 5.336 3.602 7.02 1.825 1.631 6.428 3.214 8.005 3.725-.276 1.307-.551 2.616-.878 3.87-.243.851-.417 1.687-.708 2.529-.271.838-.539 1.669-.804 2.492-.57 1.565-1.147 3.184-1.741 4.696-.405 1.056-.811 2.054-1.216 3.06.205-1.3.553-3.854.558-4.07.052-2.248-.747-5.904-2.336-8.474.01-.332-.009-.663-.062-.992-.416-2.587-2.846-4.509-5.486-3.806-3.663.975-5.986 7.405-6.159 10.785-.01.199.12 2.375.225 3.747-.185-.797-.354-1.573-.554-2.39-.384-1.62-.816-3.225-1.272-4.955-.25-.827-.503-1.662-.759-2.507-.235-.842-.591-1.701-.885-2.562-.725-1.981-1.555-3.953-2.436-5.921 1.419-.34 6.436-1.619 8.451-3.165 2.006-1.539 4.133-4.057 4.114-6.732-.019-2.621-2.129-4.888-4.845-4.593-3.769.409-7.039 6.413-7.724 9.728-.042.207-.266 2.641-.363 3.98-.539-1.179-1.07-2.358-1.654-3.534-1.684-3.392-3.494-6.773-5.286-10.154-.549-1.035-1.084-2.073-1.624-3.111.506-.116 6.503-1.507 8.76-3.239 2.006-1.539 4.133-4.057 4.114-6.733-.019-2.619-2.13-4.888-4.845-4.592-3.769.409-7.039 6.412-7.723 9.728-.051.25-.368 3.752-.404 4.647-1.187-2.284-2.348-4.573-3.402-6.875-1.458-3.174-2.713-6.369-3.7-9.555.236-.054 6.501-1.478 8.813-3.251 2.006-1.539 4.133-4.057 4.114-6.733-.018-2.62-2.129-4.887-4.845-4.592-3.769.409-7.039 6.412-7.723 9.728-.054.261-.392 4.029-.404 4.716-.059-.189-.14-.379-.196-.569-1.01-3.415-1.56-6.849-1.918-10.09-.211-1.882-.308-3.693-.362-5.457 1.194-.146 6.644-.871 8.9-2.237 2.163-1.31 4.554-3.579 4.829-6.24.269-2.606-1.581-5.092-4.311-5.097-3.791-.007-7.701 5.601-8.745 8.821-.057.175-.437 2.019-.695 3.366-.012-.797-.04-1.619-.037-2.382.006-2.866.187-5.491.366-7.814.113-1.321.241-2.512.373-3.625 1.097-.755 5.481-3.849 6.829-6.061 1.316-2.159 2.392-5.274 1.41-7.763-.962-2.437-3.749-3.791-6.175-2.538-3.368 1.741-4.253 8.52-3.697 11.859.049.288 1.321 4.714 1.378 4.676 0 0 .054-.037.066-.046-.148 1.069-.294 2.217-.429 3.474-.231 2.324-.47 4.952-.537 7.829-.075 2.875-.075 6.002.221 9.295.293 3.301.77 6.759 1.722 10.257.011.039.027.079.038.119-.597-.937-2.352-3.5-2.509-3.682-2.215-2.56-7.999-6.204-11.488-4.723-2.514 1.068-3.25 4.077-1.988 6.374 1.293 2.351 4.378 3.51 6.88 3.875z" fill="#92e3a9"/><path d="m95.733 377.496c.059.037 1.21-4.422 1.251-4.712.466-3.352-.603-10.105-4.016-11.754-2.459-1.188-5.208.241-6.103 2.704-.915 2.514.245 5.6 1.619 7.722 1.612 2.491 7.245 6.037 7.249 6.04z" fill="#92e3a9"/><path d="m459 463h14" fill="none" stroke="#263238" stroke-linecap="round" stroke-linejoin="round" stroke-miterlimit="10"/><path d="m199 463h246" fill="none" stroke="#263238" stroke-linecap="round" stroke-linejoin="round" stroke-miterlimit="10"/><path d="m38 463h151" fill="none" stroke="#263238" stroke-linecap="round" stroke-linejoin="round" stroke-miterlimit="10"/><path d="m127.115 84.428c0 7.876-14.261 24.327-14.261 24.327s-14.26-16.451-14.26-24.327 6.385-14.26 14.26-14.26c7.876 0 14.261 6.384 14.261 14.26zm136.734 271.79c-7.876 0-14.261 6.385-14.261 14.26 0 7.876 14.261 24.327 14.261 24.327s14.26-16.451 14.26-24.327-6.385-14.26-14.26-14.26zm119.117-326.315c-7.876 0-14.26 6.385-14.26 14.26 0 7.876 14.26 24.327 14.26 24.327s14.261-16.451 14.261-24.327-6.385-14.26-14.261-14.26zm-317.087 187.903c-7.876 0-14.261 6.385-14.261 14.26 0 7.876 14.261 24.327 14.261 24.327s14.261-16.451 14.261-24.327c-.001-7.875-6.385-14.26-14.261-14.26zm379.162-5.033c-7.876 0-14.26 6.385-14.26 14.26s14.26 24.327 14.26 24.327 14.261-16.451 14.261-24.327-6.385-14.26-14.261-14.26zm-62.075-162.577h-6c-.553 0-1-.448-1-1s.447-1 1-1h6c.553 0 1 .448 1 1 0 .553-.447 1-1 1zm-61.24 325.316c0-.553-.447-1-1-1h-11.946c-.553 0-1 .447-1 1s.447 1 1 1h11.946c.552 0 1-.447 1-1zm-23.892 0c0-.553-.447-1-1-1h-11.946c-.553 0-1 .447-1 1s.447 1 1 1h11.946c.553 0 1-.447 1-1zm34.939.903c4.262-.455 8.163-2.496 10.983-5.748.362-.417.317-1.049-.1-1.411-.417-.361-1.048-.316-1.411.101-2.488 2.868-5.928 4.669-9.686 5.07-.549.059-.946.551-.888 1.101.055.513.488.894.993.894.037-.001.073-.003.109-.007zm-58.76-1.618c.217-.508-.019-1.096-.526-1.314-3.458-1.478-6.086-4.38-7.211-7.961-.165-.525-.725-.821-1.254-.654-.526.166-.819.727-.654 1.254 1.3 4.139 4.337 7.492 8.332 9.201.129.055.262.08.394.08.386 0 .756-.227.919-.606zm73.882-15.784v-11.946c0-.553-.447-1-1-1s-1 .447-1 1v11.946c0 .553.447 1 1 1s1-.448 1-1zm-82.207-5.072v-8.211c-.001-1.297-.099-2.599-.289-3.868-.082-.546-.591-.915-1.138-.841-.547.083-.923.592-.841 1.138.177 1.173.267 2.375.268 3.572v8.21c0 .553.447 1 1 1s1-.447 1-1zm82.207-18.821v-11.945c0-.553-.447-1-1-1s-1 .447-1 1v11.945c0 .553.447 1 1 1s1-.447 1-1zm-87.415-3.231c.444-.327.54-.953.213-1.398-2.459-3.343-5.724-6.072-9.441-7.893-.493-.243-1.095-.036-1.337.459-.243.495-.038 1.095.458 1.338 3.429 1.679 6.441 4.197 8.709 7.282.196.267.499.407.807.407.205-.001.413-.064.591-.195zm-20.228-10.904c0-.553-.448-1-1-1h-11.946c-.552 0-1 .447-1 1s.448 1 1 1h11.946c.552 0 1-.447 1-1zm-23.892 0c0-.553-.448-1-1-1h-11.946c-.552 0-1 .447-1 1s.448 1 1 1h11.946c.552 0 1-.447 1-1zm-23.892 0c0-.553-.448-1-1-1h-11.946c-.552 0-1 .447-1 1s.448 1 1 1h11.946c.552 0 1-.447 1-1zm-23.892 0c0-.553-.448-1-1-1h-11.946c-.552 0-1 .447-1 1s.448 1 1 1h11.946c.552 0 1-.447 1-1zm-23.892 0c0-.553-.448-1-1-1h-11.946c-.552 0-1 .447-1 1s.448 1 1 1h11.946c.552 0 1-.447 1-1zm-23.892 0c0-.553-.448-1-1-1h-11.946c-.552 0-1 .447-1 1s.448 1 1 1h11.946c.552 0 1-.447 1-1zm-23.892 0c0-.553-.448-1-1-1h-11.946c-.552 0-1 .447-1 1s.448 1 1 1h11.946c.552 0 1-.447 1-1zm-23.677-1.593c.248-.493.049-1.094-.445-1.342-3.37-1.692-6.201-4.46-7.97-7.793-.26-.489-.865-.675-1.352-.415-.488.26-.673.865-.415 1.353 1.962 3.696 5.101 6.766 8.839 8.643.144.072.297.106.448.106.367-.001.72-.203.895-.552zm-10.538-20.244v-11.945c0-.553-.448-1-1-1s-1 .447-1 1v11.945c0 .553.448 1 1 1s1-.447 1-1zm0-23.891v-11.947c0-.553-.448-1-1-1s-1 .447-1 1v11.946c0 .553.448 1 1 1 .552.001 1-.446 1-.999zm0-23.892v-5.037c0-2.133.624-4.194 1.803-5.96.307-.459.183-1.08-.276-1.387-.458-.308-1.08-.184-1.387.276-1.4 2.096-2.14 4.541-2.14 7.07v5.037c0 .552.448 1 1 1 .552.001 1-.447 1-.999zm405.59-16.616c.524-.174.809-.74.635-1.264s-.739-.809-1.264-.635c-1.469.487-3.006.733-4.569.733h-6.977c-.553 0-1 .448-1 1s.447 1 1 1h6.977c1.777 0 3.526-.28 5.198-.834zm-23.121-.166c0-.552-.447-1-1-1h-11.946c-.553 0-1 .448-1 1s.447 1 1 1h11.946c.553 0 1-.447 1-1zm-23.892 0c0-.552-.447-1-1-1h-11.945c-.553 0-1 .448-1 1s.447 1 1 1h11.945c.552 0 1-.447 1-1zm-23.892 0c0-.552-.447-1-1-1h-11.946c-.553 0-1 .448-1 1s.447 1 1 1h11.946c.553 0 1-.447 1-1zm-23.892 0c0-.552-.447-1-1-1h-11.946c-.553 0-1 .448-1 1s.447 1 1 1h11.946c.553 0 1-.447 1-1zm-23.892 0c0-.552-.447-1-1-1h-11.945c-.553 0-1 .448-1 1s.447 1 1 1h11.945c.553 0 1-.447 1-1zm-23.892 0c0-.552-.447-1-1-1h-11.946c-.553 0-1 .448-1 1s.447 1 1 1h11.946c.553 0 1-.447 1-1zm-23.892 0c0-.552-.447-1-1-1h-11.945c-.553 0-1 .448-1 1s.447 1 1 1h11.945c.552 0 1-.447 1-1zm-23.892 0c0-.552-.447-1-1-1h-11.946c-.553 0-1 .448-1 1s.447 1 1 1h11.946c.553 0 1-.447 1-1zm-23.891 0c0-.552-.447-1-1-1h-11.946c-.552 0-1 .448-1 1s.448 1 1 1h11.946c.552 0 1-.447 1-1zm-23.893 0c0-.552-.448-1-1-1h-11.946c-.552 0-1 .448-1 1s.448 1 1 1h11.946c.552 0 1-.447 1-1zm-23.892 0c0-.552-.448-1-1-1h-11.946c-.552 0-1 .448-1 1s.448 1 1 1h11.946c.553 0 1-.447 1-1zm-23.892 0c0-.552-.448-1-1-1h-11.946c-.552 0-1 .448-1 1s.448 1 1 1h11.946c.553 0 1-.447 1-1zm-23.892 0c0-.552-.448-1-1-1h-11.946c-.552 0-1 .448-1 1s.448 1 1 1h11.946c.552 0 1-.447 1-1zm-23.892 0c0-.552-.448-1-1-1h-11.946c-.552 0-1 .448-1 1s.448 1 1 1h11.946c.552 0 1-.447 1-1zm-23.892 0c0-.552-.448-1-1-1h-11.946c-.552 0-1 .448-1 1s.448 1 1 1h11.946c.552 0 1-.447 1-1zm-23.892 0c0-.552-.448-1-1-1h-11.946c-.552 0-1 .448-1 1s.448 1 1 1h11.946c.553 0 1-.447 1-1zm390.948-7.871c1.227-2.343 1.874-4.987 1.874-7.648v-4.475c0-.552-.447-1-1-1s-1 .448-1 1v4.475c0 2.339-.569 4.663-1.646 6.72-.257.49-.067 1.094.422 1.35.148.077.307.114.463.114.36.001.708-.195.887-.536zm1.874-24.069v-11.946c0-.552-.447-1-1-1s-1 .448-1 1v11.946c0 .552.447 1 1 1 .552 0 1-.448 1-1zm0-23.892v-4.145c.001-2.782-.704-5.533-2.038-7.957-.267-.483-.874-.661-1.358-.393-.483.267-.66.874-.393 1.358 1.172 2.128 1.791 4.545 1.79 6.991v4.146c0 .552.447 1 1 1 .551 0 .999-.447.999-1zm-10.993-18.686c.162-.528-.134-1.087-.662-1.25-1.569-.483-3.206-.729-4.864-.729h-7.306c-.553 0-1 .448-1 1s.447 1 1 1h7.306c1.459 0 2.897.215 4.276.64.098.03.196.045.294.045.428 0 .824-.276.956-.706zm-23.778-.979c0-.552-.447-1-1-1h-11.945c-.553 0-1 .448-1 1s.447 1 1 1h11.945c.553 0 1-.447 1-1zm-23.891 0c0-.552-.447-1-1-1h-11.946c-.553 0-1 .448-1 1s.447 1 1 1h11.946c.552 0 1-.447 1-1zm-23.892 0c0-.552-.447-1-1-1h-11.946c-.553 0-1 .448-1 1s.447 1 1 1h11.946c.553 0 1-.447 1-1zm-23.893 0c0-.552-.447-1-1-1h-11.946c-.553 0-1 .448-1 1s.447 1 1 1h11.946c.553 0 1-.447 1-1zm-23.891 0c0-.552-.447-1-1-1h-11.946c-.553 0-1 .448-1 1s.447 1 1 1h11.946c.552 0 1-.447 1-1zm-23.893 0c0-.552-.447-1-1-1h-11.945c-.553 0-1 .448-1 1s.447 1 1 1h11.945c.553 0 1-.447 1-1zm-23.891 0c0-.552-.447-1-1-1h-11.946c-.553 0-1 .448-1 1s.447 1 1 1h11.946c.552 0 1-.447 1-1zm-23.892 0c0-.552-.447-1-1-1h-11.946c-.553 0-1 .448-1 1s.447 1 1 1h11.946c.553 0 1-.447 1-1zm-23.893 0c0-.552-.447-1-1-1h-11.946c-.552 0-1 .448-1 1s.448 1 1 1h11.946c.553 0 1-.447 1-1zm-23.892 0c0-.552-.448-1-1-1h-11.946c-.552 0-1 .448-1 1s.448 1 1 1h11.946c.553 0 1-.447 1-1zm-23.891 0c0-.552-.448-1-1-1h-11.946c-.552 0-1 .448-1 1s.448 1 1 1h11.946c.552 0 1-.447 1-1zm-23.892 0c0-.552-.448-1-1-1h-11.946c-.552 0-1 .448-1 1s.448 1 1 1h11.946c.552 0 1-.447 1-1zm-23.892 0c0-.552-.448-1-1-1h-11.946c-.552 0-1 .448-1 1s.448 1 1 1h11.946c.552 0 1-.447 1-1zm-23.893 0c0-.552-.448-1-1-1h-11.946c-.552 0-1 .448-1 1s.448 1 1 1h11.946c.553 0 1-.447 1-1zm-23.204-3.019c.381-.4.366-1.033-.033-1.414-2.482-2.367-3.849-5.559-3.849-8.988v-1.083c0-.552-.448-1-1-1s-1 .448-1 1v1.083c0 3.981 1.587 7.687 4.468 10.436.194.185.442.276.69.276.264 0 .528-.104.724-.31zm-3.881-23.431v-11.946c0-.552-.448-1-1-1s-1 .448-1 1v11.946c0 .552.448 1 1 1s1-.448 1-1zm0-23.892v-2.505c0-2.987.878-5.871 2.54-8.337.309-.458.188-1.079-.271-1.388s-1.079-.188-1.388.271c-1.886 2.798-2.882 6.067-2.882 9.455v2.505c0 .552.448 1 1 1 .553-.001 1.001-.449 1.001-1.001zm11.538-17.055c1.108-.258 2.252-.389 3.4-.389h8.286c.552 0 1-.448 1-1s-.448-1-1-1h-8.286c-1.3 0-2.597.148-3.853.44-.538.126-.873.663-.748 1.201.107.462.519.774.973.773.076.001.152-.008.228-.025zm23.79-.627c4.198-.73 8.008-3.165 10.453-6.681.315-.453.204-1.077-.25-1.392-.453-.315-1.076-.203-1.392.25-2.142 3.08-5.479 5.213-9.154 5.851-.544.095-.908.612-.814 1.157.085.486.507.829.984.829.057 0 .115-.005.173-.014zm13.325-18.643v-8.123c.001-1.198.15-2.386.446-3.532.138-.535-.184-1.08-.719-1.218-.534-.137-1.08.184-1.218.719-.337 1.309-.509 2.665-.509 4.031v8.124c0 .552.448 1 1 1 .553-.001 1-.448 1-1.001zm7.01-20.314c2.144-1.249 4.595-1.909 7.09-1.909h3.987c.552 0 1-.448 1-1s-.448-1-1-1h-3.987c-2.849 0-5.649.754-8.097 2.182-.477.278-.639.89-.36 1.367.186.319.521.497.865.497.17 0 .343-.044.502-.137zm203.213-2.909c0-.552-.447-1-1-1h-11.946c-.553 0-1 .448-1 1s.447 1 1 1h11.946c.553 0 1-.447 1-1zm-23.891 0c0-.552-.447-1-1-1h-11.946c-.553 0-1 .448-1 1s.447 1 1 1h11.946c.553 0 1-.447 1-1zm-23.893 0c0-.552-.447-1-1-1h-11.946c-.553 0-1 .448-1 1s.447 1 1 1h11.946c.553 0 1-.447 1-1zm-23.891 0c0-.552-.447-1-1-1h-11.946c-.553 0-1 .448-1 1s.447 1 1 1h11.946c.552 0 1-.447 1-1zm-23.893 0c0-.552-.447-1-1-1h-11.945c-.553 0-1 .448-1 1s.447 1 1 1h11.945c.553 0 1-.447 1-1zm-23.891 0c0-.552-.448-1-1-1h-11.946c-.552 0-1 .448-1 1s.448 1 1 1h11.946c.552 0 1-.447 1-1zm-23.893 0c0-.552-.448-1-1-1h-11.946c-.552 0-1 .448-1 1s.448 1 1 1h11.946c.553 0 1-.447 1-1zm-23.892 0c0-.552-.448-1-1-1h-11.946c-.552 0-1 .448-1 1s.448 1 1 1h11.946c.553 0 1-.447 1-1zm149.119 261.852v-6c0-.553-.447-1-1-1s-1 .447-1 1v6c0 .553.447 1 1 1s1-.447 1-1z" opacity=".1"/><path d="m87.382 156.701v-5.118h-3.304v5.118h-8.26v-5.118h-3.304v5.118h-8.259v-5.118h-3.304v5.118h-3.561v31.038h33.554v-31.038zm-19.382 23.955h-5.286v-5.286h5.286zm0-8.37h-5.286v-5.286h5.286zm8.81 8.37h-5.286v-5.286h5.286zm0-8.37h-5.286v-5.286h5.286zm8.81 8.37h-5.286v-5.286h5.286zm0-8.37h-5.286v-5.286h5.286z" opacity=".1"/><path d="m281.382 409.701v-5.118h-3.304v5.118h-8.26v-5.118h-3.304v5.118h-8.259v-5.118h-3.304v5.118h-3.562v31.038h33.554v-31.038zm-19.382 23.955h-5.286v-5.286h5.286zm0-8.37h-5.286v-5.286h5.286zm8.81 8.37h-5.286v-5.286h5.286zm0-8.37h-5.286v-5.286h5.286zm8.81 8.37h-5.286v-5.286h5.286zm0-8.37h-5.286v-5.286h5.286z" opacity=".1"/><path d="m437.572 37.415v-5.119h-3.304v5.119h-8.26v-5.119h-3.304v5.119h-8.259v-5.119h-3.304v5.119h-3.562v31.038h33.554v-31.038zm-19.382 23.955h-5.286v-5.286h5.286zm0-8.37h-5.286v-5.286h5.286zm8.81 8.37h-5.286v-5.286h5.286zm0-8.37h-5.286v-5.286h5.286zm8.81 8.37h-5.286v-5.286h5.286zm0-8.37h-5.286v-5.286h5.286z" opacity=".1"/><path d="m444.977 340.632h-268.163v-258.543c0-2.258 1.831-4.089 4.089-4.089h259.984c2.258 0 4.089 1.831 4.089 4.089v258.543z" fill="#e5e5e5"/><path d="m222.763 165.781c0 3.835-3.109 6.945-6.945 6.945s-6.945-3.109-6.945-6.945 3.109-6.945 6.945-6.945 6.945 3.109 6.945 6.945z" fill="#ccc"/><path d="m444.977 107.317-34.703 33.329c-6.112-.516-11.883-.22-15.27.204-.397.047-.814-.103-1.276-.467-6.494-5.102-12.554-42.257-15.184-62.383h-1.905c2.09 16.047 8.205 57.813 15.919 63.873.868.682 1.765.97 2.681.856 3.747-.468 8.438-.646 13.222-.342l-28.09 26.978-39.521-29.274c-4.072-3.016-9.78-2.529-13.273 1.137-4.243 4.453-7.468 8.053-9.588 10.703-2.794 3.493-7.219 8.97-12.147 14.986l-14.689-11.824c.003-.004.007-.009.01-.013 8.722-11.504 16.254-21.44 20.705-26.559 9.055-10.414 30.006-36.674 40.996-50.522h-2.418c-11.196 14.1-31.225 39.178-40.007 49.279-4.489 5.162-12.029 15.108-20.761 26.627l-20.004-16.102c.208-.398.128-.893-.238-1.179-.359-.28-.846-.245-1.181.037l-19.643-15.811c-.406-.328-1.003-.264-1.331.144-.328.407-.263 1.003.144 1.331l19.636 15.806c-2.809 3.611-10.696 13.786-16.325 21.394l-52.647-40.582c-.413-.319-1.01-.243-1.328.172-.319.414-.242 1.009.172 1.328l52.68 40.607c-1.159 1.582-2.189 3.015-3.004 4.192-6.236 9.008-14.585 17.585-29.237 12.895-14.995-4.798-16.955-15.827-17.031-16.292-.035-.222-.148-.424-.318-.571l-13.624-11.712c1.019-7.298 2.172-17.554 3.455-31.996 1.358-15.286 2.434-30.561 3.032-39.566h-1.887c-1.503 23.013-3.86 51.794-6.288 70.112l-7.166-6.161v2.498l6.862 5.899c-1.257 9.002-2.525 15.03-3.694 15.831-.976.434-2.053 1.062-3.168 1.801v2.301c1.403-.999 2.761-1.848 3.937-2.371.815-.362 2.364-1.052 4.598-16.124l12.46 10.711c.456 2.117 3.44 12.703 18.257 17.445 3.047.975 5.846 1.408 8.428 1.408 10.906-.001 17.895-7.738 22.944-15.029.8-1.156 1.811-2.562 2.947-4.113l20.263 15.619c-10.874 13.959-21.572 27.016-29.054 33.982-8.919 8.305-20.175 18.029-29.327 25.781-12.837-8.417-24.865-17.523-25.013-17.635-.018-.014-.041-.015-.06-.027-.023-.015-.037-.038-.061-.051l-10.317-5.596v2.154l7.308 3.964c-1.745.441-4.347 1.067-7.308 1.682v1.944c4.592-.941 8.37-1.93 9.667-2.28 2.109 1.586 12.813 9.576 24.277 17.12-8.644 7.303-15.075 12.57-15.208 12.679-.405.331-.464.928-.133 1.333.187.229.459.347.733.347.211 0 .423-.07.599-.214.135-.111 6.787-5.56 15.663-13.063 2.635 1.712 5.291 3.385 7.873 4.934 1.787 1.072 3.792 2.257 5.947 3.531 5.158 3.049 11.439 6.764 17.651 10.683l-18.125 19.687c-.246.267-.317.652-.184.99.134.339.449.57.811.596.166.012 16.758 1.449 30.234 20.439 11.729 16.527 22.865 30.416 42.51 39.825h4.603c-21.669-9.231-33.281-23.608-45.569-40.922-11.474-16.169-24.934-20.061-29.794-20.968l17.139-18.616c12.398 7.916 24.095 16.495 25.485 22.053 2.029 8.114 11.861 18.109 16.586 22.913 1.211 1.229 2.255 2.292 2.485 2.637 1.322 1.983 9.968 6.909 11.688 7.877.066.036.135.066.207.086 1.7.479 12.138 3.324 20.421 3.324 4.32 0 8.053-.774 9.654-3.061 2.553-3.648 9.985-9.499 15.958-14.201 4.243-3.34 7.908-6.226 9.247-7.832.373-.448 2.074-2.033 4.788-4.485l7.061 7.061-53.893 44.135h2.989l52.25-42.789 9.319 9.319-37.652 33.47h2.85l36.811-32.721c.195-.173.31-.419.318-.68.007-.261-.093-.513-.277-.697l-9.896-9.896 45.275-37.077 15.378 12.379-56.874 50.555c-2.642 2.347-2.923 6.301-.64 8.999 1.282 1.513 3.086 2.296 4.915 2.296 1.428 0 2.871-.477 4.089-1.458l59.357-51.663.842.677v-3.92l-.888.773-7.868-6.333 8.756-7.783v-2.534l-10.252 9.113-15.316-12.329 25.568-20.938v-2.448l-27.076 22.173-9.623-7.746c12.732-11.109 25.848-22.516 36.699-31.934v-2.507c-7.632 6.625-22.653 19.674-38.196 33.236l-18.991-15.287c16.735-16.479 39.23-38.791 42.789-43.141 6.003-7.337 8.371-28.717 2.618-38.945-3.469-6.166-12.026-8.875-20.455-9.895l32.235-30.958v-2.627zm-10.192 165.826 7.852 6.32-59.073 51.417c-1.946 1.562-4.731 1.293-6.342-.61-1.614-1.908-1.416-4.701.451-6.361zm-115.317-120.029c2.055-2.57 5.333-6.228 9.478-10.579 2.837-2.975 7.468-3.372 10.775-.922l39.262 29.083-31.21 29.974-40.457-32.566c6.751-8.245 12.014-14.818 12.152-14.99zm-29.46 3.489 14.632 11.779c-5.542 6.751-11.592 14.022-16.638 19.871l-13.965-10.764c5.437-7.003 10.883-14.176 15.971-20.886zm-37.774 4.078c5.598-7.568 13.474-17.729 16.3-21.363l19.997 16.097c-5.095 6.72-10.552 13.907-15.994 20.917zm-8.622 52.513c7.568-7.046 18.336-20.185 29.263-34.212l13.885 10.703c-4.68 5.381-8.314 9.297-9.54 9.997-3.334 1.906-29.537 14.88-41.731 20.904 2.828-2.526 5.572-5.017 8.123-7.392zm2.308 44.479c-6.194-3.914-12.536-7.664-17.996-10.892-2.151-1.272-4.152-2.455-5.936-3.525-2.407-1.444-4.879-2.996-7.338-4.588 4.811-4.078 10.17-8.675 15.461-13.318.005-.002.011-.001.016-.004 1.78-.877 43.64-21.507 48.034-24.019 1.412-.807 5.324-5.007 10.209-10.617.018.001.036.009.054.009.284 0 .564-.127.751-.369.174-.226.22-.502.169-.761 5.218-6.03 11.382-13.448 16.773-20.02l40.281 32.424-20.747 19.926c-.013.013-.017.031-.029.044-.016.016-.036.024-.051.042l-32.242 39.682-28.941-22.783c-.388-.307-.947-.262-1.283.103zm85.291 57.195c-3.29 4.699-21.146.922-27.901-.97-3.839-2.164-10.12-5.988-10.942-7.22-.315-.474-1.102-1.28-2.711-2.915-4.607-4.683-14.196-14.431-16.099-22.042-1.531-6.126-13.259-14.856-26.014-23.015l16.359-17.77 28.985 22.817c.406.321.995.254 1.321-.147l31.412-38.66 9.823 85.338c-1.803 1.676-3.293 3.241-4.233 4.584zm30.867-27.363c-3.13 2.822-5.132 4.683-5.566 5.203-1.212 1.454-4.978 4.418-8.964 7.557-3.5 2.755-7.252 5.711-10.379 8.459l-9.871-85.763 20.585-19.77 37.059 29.831c-9.505 9.355-16.8 16.487-17.001 16.683-.147.144-.244.333-.275.537zm44.751-36.866 9.575 7.708-45.114 36.945-7.125-7.125c8.659-7.775 25.191-22.278 42.664-37.528zm-1.498-1.205c-15.756 13.751-31.808 27.822-41.04 36.084l5.203-34.681c1.489-1.456 8.327-8.144 16.937-16.617zm-19.029-17.75-37.041-29.816 31.266-30.028 37.799 28c-8.936 9.045-21.618 21.595-32.024 31.844zm45.244-79.96c5.338 9.492 3.105 30.047-2.434 36.817-1.202 1.469-4.696 5.116-9.442 9.936l-37.757-27.968 29.066-27.915c8.798.881 17.408 3.514 20.567 9.13z" fill="#fff"/><path d="m285.145 310.305h150.613v25.968h-150.613z" fill="#fff"/><path d="m295.296 322.698h9.915v11.331h-9.915z" fill="#92e3a9"/><path d="m308.988 322.462h9.915v11.568h-9.915z" fill="#92e3a9"/><path d="m322.68 319.865h9.915v14.164h-9.915z" fill="#92e3a9"/><path d="m336.372 326.475h9.915v7.554h-9.915z" fill="#92e3a9"/><path d="m350.065 318.921h9.915v15.109h-9.915z" fill="#92e3a9"/><path d="m363.757 323.406h9.915v10.623h-9.915z" fill="#92e3a9"/><path d="m377.449 328.364h9.915v5.666h-9.915z" fill="#92e3a9"/><path d="m391.141 325.531h9.915v8.499h-9.915z" fill="#92e3a9"/><path d="m404.833 327.892h9.915v6.138h-9.915z" fill="#92e3a9"/><path d="m418.525 318.921h9.915v15.109h-9.915z" fill="#92e3a9"/><path d="m177.542 340.632h67.015c-4.585-2.201-11.488-5.66-12.323-6.912-1.263-1.894-8.208-13.89-11.996-14.521s-5.051 3.788-5.051 3.788l8.208 13.258-3.157-1.894s-7.576-8.207-9.47-9.47 0-6.314.631-10.102 5.051-6.314 6.313-9.47c1.263-3.157 0-12.627 0-15.784s-5.682-12.627-9.47-20.203-16.415-22.097-23.36-25.254c-1.967-.894-4.503-1.477-7.34-1.864z" fill="#ccc"/><path d="m335.143 153.154-10.101 12.627 12.627 16.415 23.36-11.995z" fill="#ccc"/><path d="m347.77 209.975-14.521 13.89 5.682 30.936 15.784 4.42 5.051-13.259 15.152-14.521z" fill="#ccc"/><path d="m444.977 340.632h-268.163v-258.543c0-2.258 1.831-4.089 4.089-4.089h259.984c2.258 0 4.089 1.831 4.089 4.089v258.543z" fill="none" stroke="#263238" stroke-linecap="round" stroke-linejoin="round" stroke-miterlimit="10"/><path d="m444.977 128.499h-268.163v-46.41c0-2.258 1.831-4.089 4.089-4.089h259.984c2.258 0 4.089 1.831 4.089 4.089v46.41z" fill="#92e3a9" stroke="#263238" stroke-linecap="round" stroke-linejoin="round" stroke-miterlimit="10"/><path d="m194.352 109.591h211.502v8.839h-211.502z" fill="#fff" stroke="#263238" stroke-linecap="round" stroke-linejoin="round" stroke-miterlimit="10"/><path d="m441.104 78h-246.92v22.735h250.793v-18.862c0-2.139-1.734-3.873-3.873-3.873z" fill="#808080" stroke="#263238" stroke-linecap="round" stroke-linejoin="round" stroke-miterlimit="10"/><path d="m444.977 92.786h-268.163v-10.697c0-2.258 1.831-4.089 4.089-4.089h259.984c2.258 0 4.089 1.831 4.089 4.089v10.697z" fill="#263238" stroke="#263238" stroke-linecap="round" stroke-linejoin="round" stroke-miterlimit="10"/><circle cx="433.955" cy="85.65" fill="#fff" r="2.021"/><circle cx="425.619" cy="85.65" fill="#fff" r="2.021"/><circle cx="417.284" cy="85.65" fill="#fff" r="2.021"/><path d="m374.899 167.999h-33.301c-2.609 0-4.723 2.115-4.723 4.723v31.265c0 2.609 2.115 4.723 4.723 4.723h9.856l7.239 14.249 6.65-14.249h9.556c2.608 0 4.723-2.115 4.723-4.723v-31.265c0-2.609-2.115-4.723-4.723-4.723z" fill="#263238" stroke="#263238" stroke-linecap="round" stroke-linejoin="round" stroke-miterlimit="10"/><path d="m351.948 183.194 1.154-7.65h2.355v10.775h-1.601v-7.727l-1.171 7.727h-1.601l-1.262-7.619v7.619h-1.478v-10.775h2.355z" fill="#92e3a9"/><path d="m356.555 178.13c0-1.724.907-2.709 2.571-2.709 1.662 0 2.571.985 2.571 2.709v5.603c0 1.723-.909 2.709-2.571 2.709-1.663 0-2.571-.985-2.571-2.709zm1.693 5.71c0 .77.338 1.062.877 1.062s.877-.292.877-1.062v-5.818c0-.77-.338-1.062-.877-1.062s-.877.293-.877 1.062z" fill="#92e3a9"/><path d="m364.301 178.515v7.804h-1.524v-10.775h2.124l1.74 6.45v-6.45h1.508v10.775h-1.74z" fill="#92e3a9"/><path d="m355.244 191.718c-.539 0-.879.293-.879 1.062v1.154h-1.601v-1.047c0-1.724.862-2.709 2.524-2.709 1.663 0 2.526.985 2.526 2.709 0 3.386-3.372 4.649-3.372 6.418 0 .077 0 .154.015.231h3.202v1.539h-4.896v-1.324c0-3.171 3.356-3.694 3.356-6.804.002-.967-.337-1.229-.875-1.229z" fill="#92e3a9"/><path d="m361.343 191.718c-.539 0-.879.293-.879 1.062v1.154h-1.601v-1.047c0-1.724.862-2.709 2.524-2.709 1.663 0 2.526.985 2.526 2.709 0 3.386-3.371 4.649-3.371 6.418 0 .077 0 .154.015.231h3.202v1.539h-4.896v-1.324c0-3.171 3.357-3.694 3.357-6.804 0-.967-.34-1.229-.877-1.229z" fill="#92e3a9"/><g stroke="#263238" stroke-linecap="round" stroke-linejoin="round" stroke-miterlimit="10"><circle cx="358.251" cy="229.848" fill="#92e3a9" r="3.693"/><circle cx="244.371" cy="137.513" fill="#92e3a9" r="3.693"/><path d="m296.694 228.617c0 2.04-1.654 3.693-3.693 3.693-2.04 0-3.693-1.654-3.693-3.693 0-2.04 1.654-3.693 3.693-3.693s3.693 1.653 3.693 3.693z" fill="#92e3a9"/><circle cx="214.612" cy="200.805" fill="#92e3a9" r="3.693"/><path d="m229.916 293.687c0 2.04-1.654 3.693-3.693 3.693-2.04 0-3.693-1.654-3.693-3.693 0-2.04 1.653-3.693 3.693-3.693 2.039-.001 3.693 1.653 3.693 3.693z" fill="#92e3a9"/><circle cx="400.986" cy="287.576" fill="#92e3a9" r="3.693"/><circle cx="419.902" cy="173.919" fill="#92e3a9" r="3.693"/><circle cx="400.109" cy="138.129" fill="#92e3a9" r="3.693"/><path d="m410.179 233.776c0 2.04-1.654 3.693-3.693 3.693s-3.693-1.654-3.693-3.693c0-2.04 1.654-3.693 3.693-3.693s3.693 1.653 3.693 3.693z" fill="#92e3a9"/><circle cx="308.39" cy="195.377" fill="#92e3a9" r="3.693"/><path d="m95.5 357s2.25 25 3 30.25-2.5 8.5-5.75 12-4.5 10.75-4.5 16.25-.75 33-.75 34.75-.5 6-.5 6 8-.25 9-.25 4.75-14.25 5.75-18.25 8.75-29.25 11.75-36.25 3-12.25 4.25-15 2.75-25.25 2.75-25.25 13.5 23.75 14 27 .75 4-.5 6.75-4 7.75-3.75 18.5 6.149 29.77 6.149 29.77l.75 11.75s4.5 1.75 6.75 2.75 5.75-4.25 5.75-4.25-.149-8.77-.399-15.27 1.5-30 2.5-34 2.5-12.75 1.5-18.25-4.25-30.75-4.25-30.75-38 2.25-42.75 1.5-11-1-11-1z" fill="#263238"/><path d="m100.5 447.75 1.5 7.75s6.25 5.25 8.75 7.25 4 1.5 4 3.25-1.75 4.5-6 5.25-10-.25-14.75-1.75-6.932-4.467-6.932-4.467-2.621.607-2.621-2.393 2.165-9.8 2.165-9.8-1-3.716 0-4.216 4.388 3.126 4.388 3.126.5-8.75 9.5-4z" fill="#fff"/><path d="m114.62 466.861c-.611-.133-1.163-.142-1.557.076-1.687.936-8.814 4.775-17.996.367-5.892-2.828-8.901-5.65-10.308-7.313-.187 1.002-.312 1.935-.312 2.649 0 3 2.621 2.393 2.621 2.393s2.182 2.967 6.932 4.467 10.5 2.5 14.75 1.75c3.602-.636 5.403-2.707 5.87-4.389z" fill="#d2f4dc"/><path d="m151.839 447.522s-2.519-.523-3.638 1.829-2.239 5.487-2.239 5.487-4.477-.523-5.597-1.045c-1.119-.523-2.239-1.829-2.239-1.829s-2.239-4.442-3.638-2.874 1.399 6.793 1.399 6.793-2.239 4.18-2.239 6.793 1.119 5.226 1.119 5.226 4.477 1.045 8.115 1.045 3.918-1.045 7.836-1.045 13.992 2.351 17.35 1.568c3.358-.784 6.436-3.135 6.156-4.703s-11.753-5.487-15.391-7.838c-3.638-2.352-4.198-2.09-4.757-3.135-.558-1.046-2.237-6.272-2.237-6.272z" fill="#fff"/><path d="m174.237 465.01c-3.857 3.903-8.953 3.299-13.362 2.417-4.718-.944-8.965-1.73-16.357-1.415-5.558.236-9.07-.149-10.471-.355.322 1.309.721 2.245.721 2.245s4.477 1.045 8.115 1.045 3.918-1.045 7.835-1.045 13.992 2.351 17.35 1.568c3.19-.745 6.121-2.902 6.169-4.46z" fill="#92e3a9"/><path d="m89.75 347.971-.75 11.191s18.75 4.253 34.25 3.805 32-6.938 32-6.938l-3.25-11.639s-34.25-.224-41-.671c-6.75-.448-11-5.148-13.5-4.476-2.5.671-5.5 8.505-5.5 8.505z" fill="#fff"/><path d="m152 336.25 2.25 11.5s-4.75 2.75-19.25 4-33-.5-33-.5l-3.5-7.5-1.25 8.75s-6 0-7.25 0-2-.5-2-.5l2.25-9.25s1-9.25 5.75-11.5 8.75.25 12 3.25 7 2.5 12.25 2.5 27.5-2.25 27.5-2.25 3.75-1.25 4.25 1.5z" fill="#969696"/><path d="m144.5 251.25s9 23 12.75 31.25 7.25 17.75 6.75 23-6.75 19-6.75 19-6-39.5-7.25-43.5-7-26.25-7-26.25-2.5-4.75 1.5-3.5z" fill="#92e3a9"/><path d="m95.406 242.527s-5.247 5.449-6.862 12.109-2.825 89.81-2.825 91.223 6.055-1.816 7.266-2.422c1.211-.605 6.256-10.091 6.256-10.091l2.422 9.687s11.1-1.211 20.384-1.211 33.704-2.22 33.704-2.22 2.22-13.522 2.018-20.787c-.202-7.266-1.816-18.769-1.816-20.586 0-1.816-7.669-40.162-10.495-45.813s-6.458-10.697-7.064-11.1c-.605-.404-7.871-4.642-14.733-5.046s-11.504-2.22-17.558.605c-6.055 2.826-10.697 5.652-10.697 5.652z" fill="#92e3a9"/><path d="m134.761 267.351s3.431 19.778 4.44 26.439c1.009 6.66 3.229 32.695 3.229 36.529v9.082" fill="none"/><path d="m128.706 275.827s3.835 19.778 5.853 31.686 1.413 28.86 1.413 28.86" fill="none"/><path d="m106.909 277.442 17.357-1.615.605 3.835-16.751 1.412" fill="none"/><path d="m150.301 273.405-10.091.808.807 3.43 8.88-.807" fill="none"/><path d="m121.239 224.363s-9.284-1.816-12.109-.605c-2.826 1.211-5.449 6.055-6.256 7.669-.807 1.615-9.284 5.046-9.889 7.467s-.202 6.458.807 7.467 6.862.605 8.275 1.009 20.384 12.916 23.613 14.935c3.229 2.018 8.88 4.844 9.687 4.036.807-.807 5.853-13.32 6.66-19.173s-.202-7.265-2.826-12.109c-2.624-4.843-13.119-10.091-17.962-10.696z" fill="#263238"/><path d="m118.413 208.419s1.413 8.88 1.413 11.302-3.835 13.926-3.835 13.926 7.669 16.549 11.907 21.191 6.257 5.651 6.257 5.651.605-9.486 1.211-13.926c.605-4.44 6.989-17.426 6.989-17.426s-9.612 1.482-10.823-4.774-.807-11.706-2.018-14.935c-1.212-3.229-8.679-2.422-11.101-1.009z" fill="#fff"/><path d="m132.051 226.173-4.609-.864.379 3.979s2.842 7.39 8.148 11.18c.305.218.59.397.862.549 1.097-3.172 5.524-11.88 5.524-11.88s-8.377 2.318-10.304-2.964z" fill="#263238"/><path d="m148.294 205.941-.322 5.544s5.006 3.62 5.5 5.368c.493 1.748-2.424 4.04-2.424 4.04s-.446 9.563-1.282 11.057-4.995 1.62-7.296 1.64c-2.301.021-13.712-3.259-15.675-5.012s-4.355-7.998-4.355-7.998-2.522-8.934-2.906-10.294.98-3.213 6.947-5.107c5.965-1.894 22.126-1.843 21.813.762z" fill="#fff"/><path d="m121.318 212.455s1.387 3.072 3.957 1.134 3.108-5.553 3.108-5.553l-15.283 4.141s-1.187 6.223 1.207 9.184c2.395 2.961 5.902 1.278 5.704-1.264s1.307-7.642 1.307-7.642z" fill="#263238"/><path d="m146.879 223.956s-3.327.1-5.29-1.652" fill="none"/></g><path d="m143.258 211.872c.258.912.118 1.749-.311 1.87s-.986-.52-1.243-1.432-.118-1.749.311-1.87.986.52 1.243 1.432z" fill="#263238"/><path d="m112.899 212.788s9.014-1.496 19.891-4.567 15.623-4.83 15.623-4.83l-4.859-15.338c-.575-1.355-1.642-2.433-2.984-3.035-3.105-1.394-9.569-1.078-14.22-.354-6.629 1.033-11.763 2.902-14.412 7.634-2.648 4.732-2.194 10.056-1.481 12.581.713 2.526 2.442 7.909 2.442 7.909z" fill="#263238" stroke="#263238" stroke-linecap="round" stroke-linejoin="round" stroke-miterlimit="10"/><path d="m129.1 209.263s16.525-.891 22.85-2.257 11.533-8.918 11.533-8.918l-15.146 1.973s-10.284.802-19.237 9.202z" fill="#263238" stroke="#263238" stroke-linecap="round" stroke-linejoin="round" stroke-miterlimit="10"/><path d="m122.821 213.762s-1.401-4.218-4.981-2.788c-3.581 1.43-1.607 8.423 1.074 11.231 2.68 2.808 5.991-1.062 5.991-1.062" fill="#fff" stroke="#263238" stroke-linecap="round" stroke-linejoin="round" stroke-miterlimit="10"/><path d="m140.412 299.036 17.576-13.182c.118-.089.266-.13.413-.116l12.33 1.182c.689.066.894.974.299 1.329l-15.684 9.374z" fill="#263238" stroke="#263238" stroke-linecap="round" stroke-linejoin="round" stroke-miterlimit="10"/><path d="m129.513 299.844s2.826-.202 4.642-2.018 5.046-7.266 6.458-7.669c1.413-.404 8.678-1.615 10.091-1.615s2.22 1.009 1.009 2.22-6.862 3.835-6.862 3.835l-.605 2.018s15.338-1.816 16.549-1.816 2.018 1.211 2.018 2.018-3.229 3.229-4.238 4.238-6.458 5.046-7.871 5.853-15.944-.404-16.549-.404-4.844 1.009-4.844 1.009z" fill="#fff" stroke="#263238" stroke-linecap="round" stroke-linejoin="round" stroke-miterlimit="10"/><path d="m160.997 298.633s-6.458 1.413-7.871 2.22-6.257 0-6.257 0" fill="none" stroke="#263238" stroke-linecap="round" stroke-linejoin="round" stroke-miterlimit="10"/><path d="m156.355 302.669-4.44 1.413-4.642.202" fill="none" stroke="#263238" stroke-linecap="round" stroke-linejoin="round" stroke-miterlimit="10"/><path d="m106.506 261.498c.202 3.633-4.238 25.631-4.238 25.631l1.009 3.229v.807l28.053 7.669s0 7.669-1.211 11.1-2.22 9.486-2.22 9.486-12.311-3.027-22.402-6.458-25.833-8.477-28.86-11.907c-3.027-3.431-1.211-12.109-.807-13.522s11.705-31.08 13.926-35.117c2.22-4.036 5.449-7.871 9.687-6.66s7.467 6.66 7.871 9.082" fill="#92e3a9" stroke="#263238" stroke-linecap="round" stroke-linejoin="round" stroke-miterlimit="10"/><path d="m88.173 291.856c2.062-1.123 4.052-2.137 4.811-2.306 1.816-.404 8.88 1.211 8.88 1.211" fill="none" stroke="#263238" stroke-linecap="round" stroke-linejoin="round" stroke-miterlimit="10"/><path d="m82.287 295.202s1.707-1.009 3.777-2.176" fill="none" stroke="#263238" stroke-linecap="round" stroke-linejoin="round" stroke-miterlimit="10"/><path d="m94.892 285.111c-1.376-.567-2.612-1.009-3.119-1.009-1.413 0-7.669 3.027-7.669 3.027" fill="none" stroke="#263238" stroke-linecap="round" stroke-linejoin="round" stroke-miterlimit="10"/><path d="m100.249 287.533s-1.162-.564-2.638-1.235" fill="none" stroke="#263238" stroke-linecap="round" stroke-linejoin="round" stroke-miterlimit="10"/></svg>