<svg height="75" viewBox="0 0 81 75" width="81" xmlns="http://www.w3.org/2000/svg"><path d="m80.5.5v56.9h-22.9l-17.1 17.1-17.1-17.1h-23v-56.9zm-7.7 49.1v-41.4h-64.5v41.4h18.3l13.9 13.9 13.9-13.9zm-27.1-20.7c0 2.9-2.3 5.2-5.2 5.2-2.8 0-5.1-2.3-5.1-5.2 0-2.8 2.3-5.1 5.1-5.1 2.9 0 5.2 2.3 5.2 5.1zm-18.1 0c0 2.9-2.3 5.2-5.1 5.2-2.9 0-5.2-2.3-5.2-5.2 0-2.8 2.3-5.1 5.2-5.1 2.8 0 5.1 2.3 5.1 5.1zm36.2 0c0 2.9-2.3 5.2-5.2 5.2-2.8 0-5.1-2.3-5.1-5.2 0-2.8 2.3-5.1 5.1-5.1 2.9 0 5.2 2.3 5.2 5.1z" fill="#323534" fill-rule="evenodd"/></svg>