<svg height="25" viewBox="0 0 33 25" width="33" xmlns="http://www.w3.org/2000/svg"><path d="m17 .5c-7.9 0-16 2.1-16 6.3v11.7c0 4.3 8.1 6.4 16 6.4 7.8 0 16-2.1 16-6.4v-11.7c0-4.2-8.2-6.3-16-6.3zm13.1 18c0 1.5-6.3 3.5-13.1 3.5s-13.1-2-13.1-3.5v-2c3 1.7 8.1 2.5 13.1 2.5 4.9 0 10-.8 13.1-2.5zm0-5.8c0 1.4-6.3 3.4-13.1 3.4s-13.1-2-13.1-3.4v-2c3 1.7 8.1 2.5 13.1 2.5 4.9 0 10-.8 13.1-2.5zm-13.1-2.4c-6.8 0-13.1-2-13.1-3.5 0-1.4 6.3-3.4 13.1-3.4s13.1 2 13.1 3.4c0 1.5-6.3 3.5-13.1 3.5z" fill="#fff" fill-rule="evenodd"/></svg>